<svg width="23" height="27" viewBox="0 0 23 27" fill="none" xmlns="http://www.w3.org/2000/svg">
<g clip-path="url(#clip0_1_84350)">
<path d="M9.85205 18.75C9.85205 18.4393 9.60021 18.1875 9.28955 18.1875C8.97889 18.1875 8.72705 18.4393 8.72705 18.75L9.28955 18.75L9.85205 18.75ZM9.28955 18.75L8.72705 18.75L8.72705 26.25L9.28955 26.25L9.85205 26.25L9.85205 18.75L9.28955 18.75Z" fill="#25314C"/>
<path d="M11.7271 18.75C11.7271 18.4393 11.4752 18.1875 11.1646 18.1875C10.8539 18.1875 10.6021 18.4393 10.6021 18.75L11.1646 18.75L11.7271 18.75ZM11.1646 18.75L10.6021 18.75L10.6021 26.25L11.1646 26.25L11.7271 26.25L11.7271 18.75L11.1646 18.75Z" fill="#25314C"/>
<path d="M13.6021 18.75C13.6021 18.4393 13.3502 18.1875 13.0396 18.1875C12.7289 18.1875 12.4771 18.4393 12.4771 18.75L13.0396 18.75L13.6021 18.75ZM13.0396 18.75L12.4771 18.75L12.4771 26.25L13.0396 26.25L13.6021 26.25L13.6021 18.75L13.0396 18.75Z" fill="#25314C"/>
</g>
<rect x="4.41455" y="0.75" width="13.5" height="24.75" rx="3" stroke="#25314C" stroke-width="1.5"/>
<path d="M1 4.62915L22 23.6292" stroke="#25314C" stroke-width="2" stroke-linecap="round"/>
<defs>
<clipPath id="clip0_1_84350">
<rect x="3.66455" width="15" height="26.25" rx="3.75" fill="white"/>
</clipPath>
</defs>
</svg>
