<svg width="25" height="29" viewBox="0 0 25 29" fill="none" xmlns="http://www.w3.org/2000/svg">
<g clip-path="url(#clip0_20_6202)">
<path d="M21.2073 2.25731C19.8466 0.732214 17.3868 0.0783691 14.24 0.0783691H5.10723C4.79589 0.0783805 4.49476 0.187603 4.25799 0.3864C4.02121 0.585197 3.86433 0.860528 3.81553 1.16289L0.0127978 24.8783C-0.0627881 25.3459 0.305474 25.7694 0.787505 25.7694H6.42579L7.8418 16.9377L7.79786 17.2143C7.89874 16.59 8.4417 16.1296 9.08467 16.1296H11.764C17.0274 16.1296 21.1488 14.0274 22.3527 7.94611C22.3885 7.76625 22.4194 7.59119 22.4462 7.42017C22.2942 7.34104 22.2942 7.34104 22.4462 7.42017C22.8047 5.17248 22.4438 3.64249 21.2073 2.25731Z" fill="#27346A"/>
<path d="M9.99923 6.61048C10.1534 6.5383 10.322 6.5009 10.4927 6.501H17.6526C18.5005 6.501 19.2913 6.55526 20.014 6.66963C20.2162 6.70133 20.4174 6.73918 20.6172 6.78313C20.9004 6.84459 21.1804 6.9198 21.4561 7.00851C21.8113 7.12518 22.1422 7.26105 22.4463 7.42017C22.8047 5.17161 22.4438 3.64249 21.2073 2.25731C19.8458 0.732214 17.3868 0.0783691 14.24 0.0783691H5.10645C4.46338 0.0783691 3.91631 0.53872 3.81553 1.16289L0.0127984 24.8774C-0.0627876 25.3458 0.305474 25.7687 0.786724 25.7687H6.42579L9.36358 7.44975C9.39247 7.26969 9.46541 7.09922 9.57614 6.95302C9.68686 6.80683 9.83206 6.68927 9.99923 6.61048Z" fill="#27346A"/>
<path d="M22.3533 7.94586C21.1494 14.0263 17.0281 16.1293 11.7645 16.1293H9.08445C8.44148 16.1293 7.89841 16.5898 7.79851 17.214L6.03689 28.1952C5.97107 28.6044 6.29294 28.9753 6.71403 28.9753H11.467C11.7392 28.9752 12.0025 28.8796 12.2095 28.7057C12.4165 28.5318 12.5536 28.291 12.5962 28.0265L12.6425 27.7884L13.5383 22.2058L13.596 21.8973C13.6385 21.6328 13.7756 21.392 13.9826 21.2181C14.1895 21.0442 14.4528 20.9486 14.7251 20.9485H15.4364C20.0406 20.9485 23.6458 19.1092 24.6993 13.7897C25.139 11.5667 24.9115 9.71073 23.7482 8.40707C23.3954 8.01221 22.9572 7.68611 22.4468 7.41992C22.4191 7.59181 22.3891 7.766 22.3533 7.94586Z" fill="#2790C3"/>
<path d="M21.1864 6.92652C20.9987 6.87262 20.8092 6.82491 20.6183 6.78345C20.4183 6.74022 20.2172 6.70262 20.015 6.67071C19.2916 6.55557 18.5014 6.50122 17.6527 6.50122H10.4937C10.3228 6.50084 10.1541 6.53857 10.0002 6.61156C9.83284 6.69011 9.68748 6.8076 9.57671 6.95384C9.46593 7.10008 9.39308 7.27067 9.36445 7.45083L7.84277 16.9381L7.79883 17.2146C7.89893 16.5903 8.44189 16.1299 9.08496 16.1299H11.765C17.0285 16.1299 21.1498 14.0277 22.3537 7.94642C22.3896 7.76657 22.4196 7.59228 22.4473 7.42049C22.1424 7.26223 21.8124 7.12549 21.457 7.00959C21.3674 6.98036 21.2772 6.95267 21.1865 6.92652" fill="#1F264F"/>
</g>
<defs>
<clipPath id="clip0_20_6202">
<rect width="25" height="29" fill="white"/>
</clipPath>
</defs>
</svg>
