<svg width="40" height="39" viewBox="0 0 40 39" fill="none" xmlns="http://www.w3.org/2000/svg">
<g filter="url(#filter0_dii_1_82444)">
<path d="M14.9999 13.9999H15.0166M24.9999 23.9999H25.0166M26.6666 12.3333L13.3333 25.6666M29.8352 7.33076C30.1784 8.16081 30.8372 8.82058 31.6667 9.16504L34.5753 10.3699C35.4054 10.7137 36.0649 11.3732 36.4087 12.2033C36.7525 13.0335 36.7525 13.9662 36.4087 14.7963L35.2048 17.7029C34.8608 18.5334 34.8603 19.467 35.2059 20.2971L36.4077 23.2029C36.5782 23.6141 36.6659 24.0548 36.666 24.4998C36.6661 24.9449 36.5784 25.3856 36.4081 25.7968C36.2378 26.208 35.9881 26.5816 35.6734 26.8963C35.3586 27.211 34.985 27.4605 34.5737 27.6307L31.6672 28.8347C30.8372 29.1779 30.1774 29.8367 29.833 30.6662L28.6282 33.575C28.2843 34.4051 27.6248 35.0646 26.7948 35.4084C25.9647 35.7523 25.032 35.7523 24.2019 35.4084L21.2954 34.2044C20.4653 33.8615 19.533 33.8621 18.7034 34.2064L15.7947 35.4095C14.9651 35.7526 14.0333 35.7523 13.2039 35.4087C12.3745 35.0651 11.7153 34.4064 11.3713 33.5772L10.1661 30.6676C9.82292 29.8375 9.16416 29.1778 8.33466 28.8333L5.42603 27.6285C4.59631 27.2848 3.93701 26.6257 3.59306 25.796C3.2491 24.9664 3.24863 24.0341 3.59176 23.2042L4.79569 20.2975C5.13867 19.4674 5.13797 18.535 4.79374 17.7054L3.59154 14.7946C3.42109 14.3834 3.33332 13.9427 3.33325 13.4976C3.33318 13.0526 3.42081 12.6118 3.59112 12.2006C3.76144 11.7894 4.01111 11.4158 4.32586 11.1012C4.64062 10.7865 5.01429 10.5369 5.42553 10.3668L8.33208 9.16278C9.16137 8.81987 9.82073 8.16192 10.1654 7.33335L11.3702 4.4246C11.7141 3.59449 12.3735 2.93498 13.2036 2.59113C14.0337 2.24729 14.9664 2.24729 15.7964 2.59113L18.703 3.79511C19.5331 4.13811 20.4654 4.13741 21.295 3.79316L24.2049 2.593C25.0348 2.24935 25.9673 2.24942 26.7972 2.5932C27.6271 2.93697 28.2865 3.5963 28.6304 4.42619L29.8356 7.3358L29.8352 7.33076ZM15.8333 13.9999C15.8333 14.4602 15.4602 14.8333 14.9999 14.8333C14.5397 14.8333 14.1666 14.4602 14.1666 13.9999C14.1666 13.5397 14.5397 13.1666 14.9999 13.1666C15.4602 13.1666 15.8333 13.5397 15.8333 13.9999ZM25.8333 23.9999C25.8333 24.4602 25.4602 24.8333 24.9999 24.8333C24.5397 24.8333 24.1666 24.4602 24.1666 23.9999C24.1666 23.5397 24.5397 23.1666 24.9999 23.1666C25.4602 23.1666 25.8333 23.5397 25.8333 23.9999Z" stroke="#00A47D" stroke-width="3" stroke-linecap="round" stroke-linejoin="round" shape-rendering="crispEdges"/>
</g>
<defs>
<filter id="filter0_dii_1_82444" x="0.833252" y="0.833252" width="38.3333" height="38.3333" filterUnits="userSpaceOnUse" color-interpolation-filters="sRGB">
<feFlood flood-opacity="0" result="BackgroundImageFix"/>
<feColorMatrix in="SourceAlpha" type="matrix" values="0 0 0 0 0 0 0 0 0 0 0 0 0 0 0 0 0 0 127 0" result="hardAlpha"/>
<feOffset dy="1"/>
<feGaussianBlur stdDeviation="0.5"/>
<feComposite in2="hardAlpha" operator="out"/>
<feColorMatrix type="matrix" values="0 0 0 0 0 0 0 0 0 0 0 0 0 0 0 0 0 0 0.2 0"/>
<feBlend mode="normal" in2="BackgroundImageFix" result="effect1_dropShadow_1_82444"/>
<feBlend mode="normal" in="SourceGraphic" in2="effect1_dropShadow_1_82444" result="shape"/>
<feColorMatrix in="SourceAlpha" type="matrix" values="0 0 0 0 0 0 0 0 0 0 0 0 0 0 0 0 0 0 127 0" result="hardAlpha"/>
<feOffset/>
<feGaussianBlur stdDeviation="0.25"/>
<feComposite in2="hardAlpha" operator="arithmetic" k2="-1" k3="1"/>
<feColorMatrix type="matrix" values="0 0 0 0 1 0 0 0 0 1 0 0 0 0 1 0 0 0 0.3 0"/>
<feBlend mode="normal" in2="shape" result="effect2_innerShadow_1_82444"/>
<feColorMatrix in="SourceAlpha" type="matrix" values="0 0 0 0 0 0 0 0 0 0 0 0 0 0 0 0 0 0 127 0" result="hardAlpha"/>
<feOffset dx="-1" dy="1"/>
<feGaussianBlur stdDeviation="1"/>
<feComposite in2="hardAlpha" operator="arithmetic" k2="-1" k3="1"/>
<feColorMatrix type="matrix" values="0 0 0 0 1 0 0 0 0 1 0 0 0 0 1 0 0 0 0.25 0"/>
<feBlend mode="normal" in2="effect2_innerShadow_1_82444" result="effect3_innerShadow_1_82444"/>
</filter>
</defs>
</svg>
