<svg width="43" height="32" viewBox="0 0 43 32" fill="none" xmlns="http://www.w3.org/2000/svg">
<g clip-path="url(#clip0_124_9354)">
<rect width="43" height="32" rx="5.625" fill="#203F55"/>
<g clip-path="url(#clip1_124_9354)">
<path d="M39.375 0H5.625C4.13316 0 2.70242 0.592632 1.64752 1.64752C0.592632 2.70242 0 4.13316 0 5.625L0 28.125C0 29.6168 0.592632 31.0476 1.64752 32.1025C2.70242 33.1574 4.13316 33.75 5.625 33.75H39.375C40.8668 33.75 42.2976 33.1574 43.3525 32.1025C44.4074 31.0476 45 29.6168 45 28.125V5.625C45 4.13316 44.4074 2.70242 43.3525 1.64752C42.2976 0.592632 40.8668 0 39.375 0Z" fill="url(#paint0_linear_124_9354)"/>
<path opacity="0.1" d="M52.7344 97.0313C61.4955 97.0313 70.0598 94.4333 77.3444 89.5659C84.629 84.6985 90.3066 77.7803 93.6593 69.6861C97.0121 61.5919 97.8893 52.6853 96.1801 44.0925C94.4709 35.4997 90.252 27.6068 84.057 21.4118C77.862 15.2167 69.969 10.9979 61.3763 9.28867C52.7835 7.57947 43.8769 8.45669 35.7827 11.8094C27.6885 15.1621 20.7703 20.8398 15.9029 28.1244C11.0355 35.409 8.4375 43.9733 8.4375 52.7344C8.4375 64.4827 13.1045 75.7497 21.4118 84.057C29.719 92.3643 40.9861 97.0313 52.7344 97.0313Z" fill="url(#paint1_linear_124_9354)"/>
<path opacity="0.1" d="M9.14062 63.2813C13.7298 63.2813 18.2159 61.9204 22.0316 59.3708C25.8473 56.8212 28.8213 53.1974 30.5775 48.9576C32.3337 44.7178 32.7932 40.0524 31.8979 35.5514C31.0026 31.0505 28.7927 26.9161 25.5477 23.671C22.3027 20.426 18.1683 18.2161 13.6673 17.3209C9.16636 16.4256 4.50099 16.8851 0.261173 18.6412C-3.97864 20.3974 -7.60248 23.3714 -10.1521 27.1872C-12.7017 31.0029 -14.0625 35.489 -14.0625 40.0781C-14.0625 46.232 -11.6179 52.1338 -7.26646 56.4852C-2.91503 60.8367 2.98677 63.2813 9.14062 63.2813Z" fill="url(#paint2_linear_124_9354)"/>
<path opacity="0.1" d="M59.7656 30.9375C64.6599 30.9393 69.5066 29.9767 74.0287 28.1046C78.5509 26.2325 82.6597 23.4876 86.1205 20.0268C89.5813 16.566 92.3262 12.4571 94.1983 7.935C96.0705 3.41289 97.0331 -1.43381 97.0312 -6.32812C97.0331 -11.2224 96.0705 -16.0691 94.1983 -20.5912C92.3262 -25.1134 89.5813 -29.2222 86.1205 -32.683C82.6597 -36.1438 78.5509 -38.8887 74.0287 -40.7608C69.5066 -42.633 64.6599 -43.5956 59.7656 -43.5937C54.8713 -43.5956 50.0246 -42.633 45.5025 -40.7608C40.9804 -38.8887 36.8715 -36.1438 33.4107 -32.683C29.9499 -29.2222 27.205 -25.1134 25.3329 -20.5912C23.4608 -16.0691 22.4982 -11.2224 22.5 -6.32812C22.4982 -1.43381 23.4608 3.41289 25.3329 7.935C27.205 12.4571 29.9499 16.566 33.4107 20.0268C36.8715 23.4876 40.9804 26.2325 45.5025 28.1046C50.0246 29.9767 54.8713 30.9393 59.7656 30.9375Z" fill="url(#paint3_linear_124_9354)"/>
<path d="M14.0625 9.84375H7.03125C6.65829 9.84375 6.3006 9.99191 6.03688 10.2556C5.77316 10.5194 5.625 10.877 5.625 11.25V15.4688C5.625 15.8417 5.77316 16.1994 6.03688 16.4631C6.3006 16.7268 6.65829 16.875 7.03125 16.875H14.0625C14.4355 16.875 14.7931 16.7268 15.0569 16.4631C15.3206 16.1994 15.4688 15.8417 15.4688 15.4688V11.25C15.4688 10.877 15.3206 10.5194 15.0569 10.2556C14.7931 9.99191 14.4355 9.84375 14.0625 9.84375Z" fill="black"/>
<path d="M14.0625 9.84375H7.03125C6.65829 9.84375 6.3006 9.99191 6.03688 10.2556C5.77316 10.5194 5.625 10.877 5.625 11.25V15.4688C5.625 15.8417 5.77316 16.1994 6.03688 16.4631C6.3006 16.7268 6.65829 16.875 7.03125 16.875H14.0625C14.4355 16.875 14.7931 16.7268 15.0569 16.4631C15.3206 16.1994 15.4688 15.8417 15.4688 15.4688V11.25C15.4688 10.877 15.3206 10.5194 15.0569 10.2556C14.7931 9.99191 14.4355 9.84375 14.0625 9.84375Z" fill="url(#paint4_linear_124_9354)"/>
<path opacity="0.3" d="M8.4375 11.25H7.03125V15.4688H8.4375V11.25Z" fill="#7A3802"/>
<path opacity="0.3" d="M11.25 11.25H9.84375V15.4688H11.25V11.25Z" fill="#7A3802"/>
<path opacity="0.3" d="M14.0625 11.25H12.6562V15.4688H14.0625V11.25Z" fill="#7A3802"/>
<path d="M12.6562 21.0938H5.625V22.5H12.6562V21.0938Z" fill="white" fill-opacity="0.8"/>
<path d="M9.84375 23.9062H5.625V25.3125H9.84375V23.9062Z" fill="white" fill-opacity="0.8"/>
<path d="M15.4688 23.9062H11.25V25.3125H15.4688V23.9062Z" fill="white" fill-opacity="0.8"/>
<path d="M21.0938 23.9062H16.875V25.3125H21.0938V23.9062Z" fill="white" fill-opacity="0.8"/>
<path d="M21.0938 21.0938H14.0625V22.5H21.0938V21.0938Z" fill="white" fill-opacity="0.8"/>
<path d="M29.5312 21.0938H22.5V22.5H29.5312V21.0938Z" fill="white" fill-opacity="0.8"/>
<path d="M37.9688 21.0938H30.9375V22.5H37.9688V21.0938Z" fill="white" fill-opacity="0.8"/>
</g>
</g>
<defs>
<linearGradient id="paint0_linear_124_9354" x1="-0.0843756" y1="33.4687" x2="32.3156" y2="-9.73125" gradientUnits="userSpaceOnUse">
<stop stop-color="#060B0E"/>
<stop offset="1" stop-color="#254764"/>
</linearGradient>
<linearGradient id="paint1_linear_124_9354" x1="43.388" y1="28.4209" x2="38.9161" y2="16.1725" gradientUnits="userSpaceOnUse">
<stop stop-color="white" stop-opacity="0"/>
<stop offset="1" stop-color="white"/>
</linearGradient>
<linearGradient id="paint2_linear_124_9354" x1="12.8805" y1="64.4473" x2="7.74773" y2="43.8036" gradientUnits="userSpaceOnUse">
<stop stop-color="white" stop-opacity="0"/>
<stop offset="1" stop-color="white"/>
</linearGradient>
<linearGradient id="paint3_linear_124_9354" x1="60.3238" y1="-4.24926" x2="68.5644" y2="28.896" gradientUnits="userSpaceOnUse">
<stop stop-color="white" stop-opacity="0"/>
<stop offset="1" stop-color="white"/>
</linearGradient>
<linearGradient id="paint4_linear_124_9354" x1="10.5891" y1="9.84375" x2="10.5891" y2="16.875" gradientUnits="userSpaceOnUse">
<stop stop-color="#FAD961"/>
<stop offset="1" stop-color="#F7955D"/>
</linearGradient>
<clipPath id="clip0_124_9354">
<rect width="43" height="32" rx="5.625" fill="white"/>
</clipPath>
<clipPath id="clip1_124_9354">
<rect width="45" height="33.75" rx="5.625" fill="white"/>
</clipPath>
</defs>
</svg>
