<svg width="37" height="33" viewBox="0 0 37 33" fill="none" xmlns="http://www.w3.org/2000/svg">
<path d="M0 2.41892V29.654C0 30.2955 0.252857 30.9107 0.702944 31.3643C1.15303 31.8179 1.76348 32.0727 2.4 32.0727H18.576C30.816 32.0727 36.072 25.2035 36.072 16.0848C36.072 6.96616 30.816 0.0969246 18.576 0.0969246H2.4C1.77977 0.0964244 1.18343 0.337933 0.736004 0.770818C0.288577 1.2037 0.024809 1.79435 0 2.41892Z" fill="white"/>
<path d="M10.7997 6.77267V26.9208H19.4637C27.3597 26.9208 30.7677 22.3978 30.7677 16.0607C30.7677 9.72354 27.3597 5.29724 19.4637 5.29724H12.2637C12.0696 5.29049 11.8762 5.32403 11.6956 5.39579C11.5149 5.46755 11.3509 5.57599 11.2136 5.71436C11.0763 5.85274 10.9687 6.0181 10.8975 6.20016C10.8263 6.38222 10.793 6.57709 10.7997 6.77267Z" fill="#CC0066"/>
<path d="M18.504 29.8713H4.48799C3.89603 29.8713 3.32831 29.6343 2.90973 29.2125C2.49115 28.7906 2.25599 28.2185 2.25599 27.6219V4.52289C2.25281 4.22546 2.30821 3.93035 2.41895 3.65464C2.5297 3.37892 2.6936 3.12809 2.90118 2.91664C3.10876 2.70519 3.35589 2.53733 3.62826 2.42278C3.90064 2.30823 4.19285 2.24925 4.48799 2.24927H18.504C31.824 2.24927 33.84 10.9084 33.84 16.0603C33.84 24.9613 28.416 29.8713 18.504 29.8713ZM4.48799 3.04745C4.09971 3.04745 3.72734 3.2029 3.45278 3.4796C3.17823 3.7563 3.02399 4.13158 3.02399 4.52289V27.6219C3.02399 28.0132 3.17823 28.3885 3.45278 28.6652C3.72734 28.9419 4.09971 29.0973 4.48799 29.0973H18.504C27.864 29.0973 33.048 24.405 33.048 15.9877C33.048 4.66801 23.928 2.9507 18.504 2.9507L4.48799 3.04745Z" fill="black"/>
<path d="M13.9435 13.3267C14.2302 13.341 14.5133 13.398 14.7835 13.496C15.0505 13.587 15.2901 13.7452 15.4795 13.9556L15.9595 14.657C16.0477 14.9886 16.0961 15.3297 16.1035 15.6729C16.1023 15.9928 16.0537 16.3107 15.9595 16.6162C15.8673 16.8953 15.7294 17.157 15.5515 17.3902C15.3741 17.6361 15.1334 17.8284 14.8555 17.9465C14.5688 18.0729 14.2548 18.1229 13.9435 18.0916H11.8555V13.2542L13.9435 13.3267ZM13.9435 17.2451C14.1003 17.2908 14.2667 17.2908 14.4235 17.2451L14.8075 17.0274C14.8075 16.8581 15.0475 16.7855 15.0475 16.5436C15.0928 16.3121 15.0928 16.0738 15.0475 15.8422C15.0869 15.6426 15.0869 15.4371 15.0475 15.2375C14.9773 15.0715 14.8972 14.9099 14.8075 14.7538C14.7148 14.6114 14.5807 14.5016 14.4235 14.4393C14.2173 14.3995 14.0056 14.3995 13.7995 14.4393H13.0315V17.487L13.9435 17.2451Z" fill="white"/>
<path d="M20.3995 13.3273V14.198H17.8075V15.2864H20.2075V15.9879H17.8075V17.1731H20.3995V18.0196H16.7275V13.1821L20.3995 13.3273Z" fill="white"/>
<path d="M23.9276 13.3271L25.7036 18.1646H24.6236L24.2396 17.0762H22.4396L22.0556 18.1646H20.9756L22.7516 13.3271H23.9276ZM23.9276 16.3022L23.3036 14.5123L22.6796 16.3022H23.9276Z" fill="white"/>
<path d="M27.4081 13.3267V17.2451H29.8081V18.0916H26.3281V13.2542C26.6851 13.312 27.0467 13.3363 27.4081 13.3267Z" fill="white"/>
<path d="M6.88767 17.9474C7.32062 17.9522 7.74521 17.8272 8.10751 17.5883C8.46981 17.3493 8.75347 17.0073 8.92245 16.6055C9.09144 16.2038 9.13813 15.7605 9.05659 15.3319C8.97505 14.9034 8.76896 14.509 8.4645 14.1987C8.16004 13.8885 7.77095 13.6764 7.34665 13.5895C6.92236 13.5026 6.482 13.5448 6.08153 13.7106C5.68105 13.8765 5.33853 14.1585 5.09747 14.521C4.85642 14.8835 4.7277 15.31 4.72767 15.7463C4.7245 16.0342 4.77802 16.3199 4.88515 16.5868C4.99228 16.8537 5.15088 17.0966 5.35177 17.3013C5.55266 17.506 5.79185 17.6685 6.05549 17.7794C6.31913 17.8903 6.60199 17.9474 6.88767 17.9474Z" fill="black"/>
<path d="M8.59186 26.92C7.7071 26.92 6.85857 26.5658 6.23295 25.9352C5.60733 25.3047 5.25586 24.4496 5.25586 23.5579V20.8247C5.25586 20.3693 5.43539 19.9325 5.75495 19.6104C6.07451 19.2884 6.50793 19.1074 6.95986 19.1074C7.41179 19.1074 7.84521 19.2884 8.16477 19.6104C8.48433 19.9325 8.66386 20.3693 8.66386 20.8247L8.59186 26.92Z" fill="black"/>
</svg>
